<svg xmlns="http://www.w3.org/2000/svg" xmlns:xlink="http://www.w3.org/1999/xlink" version="1.1" x="0px" y="0px" viewBox="0 0 674.7 422.3" enable-background="new 0 0 674.7 422.3" xml:space="preserve" width="674.7000122070312" height="422.29998779296875">
<g id="Layer_1">
</g>
<g id="Layer_2">
	<g opacity="0.2">
		<g>
			<linearGradient id="SVGID_1_" gradientUnits="userSpaceOnUse" x1="177.5365" y1="357.3105" x2="177.5365" y2="345.9668">
				<stop offset="0" style="stop-color:#5CB3FA"/>
				<stop offset="1" style="stop-color:#404040"/>
			</linearGradient>
			<path fill="url(#SVGID_1_)" d="M0,357.3h355.1c-1.3-3.7-2.4-7.5-3.2-11.3H0V357.3z"/>
		</g>
		<linearGradient id="SVGID_2_" gradientUnits="userSpaceOnUse" x1="551.9661" y1="234.3311" x2="551.9661" y2="3.947207e-010">
			<stop offset="0" style="stop-color:#5CB3FA"/>
			<stop offset="1" style="stop-color:#404040"/>
		</linearGradient>
		<path fill="url(#SVGID_2_)" d="M674.7,131.6C674.7,59,615.7,0,543.2,0c-48.7,0-91.2,26.5-114,65.9c2.9,2.6,5.7,5.4,8.3,8.4    c20.4-37.5,60.1-63,105.7-63c66.3,0,120.2,53.9,120.2,120.2c0,39.3-19,74.3-48.3,96.3c3.6,1.9,7,4,10.1,6.5    C655.4,210.2,674.7,173.1,674.7,131.6z"/>
		<linearGradient id="SVGID_3_" gradientUnits="userSpaceOnUse" x1="586.1052" y1="357.3105" x2="586.1052" y2="220.0576">
			<stop offset="0" style="stop-color:#5CB3FA"/>
			<stop offset="1" style="stop-color:#404040"/>
		</linearGradient>
		<path fill="url(#SVGID_3_)" d="M625.3,234.3c-3.2-2.4-6.6-4.6-10.1-6.5c-9.5-5-20.3-7.8-31.7-7.8c-24.3,0-45.6,12.7-57.8,31.8    c-2.1,3.3-3.9,6.7-5.4,10.3c0.3,0.3,0.6,0.7,0.8,1c2.6,3.2,5.1,6.5,7.3,10c1-3.5,2.3-6.8,3.9-10c2-4.1,4.6-7.9,7.5-11.3    c10.5-12.5,26.2-20.4,43.8-20.4c7.3,0,14.2,1.4,20.6,3.8c4.1,1.6,8,3.6,11.6,6.1c15.1,10.3,25.1,27.7,25.1,47.3    c0,31.6-25.7,57.3-57.3,57.3h-42.1c-0.8,3.9-1.9,7.7-3.2,11.3h45.3c37.8,0,68.6-30.8,68.6-68.6    C652.1,266.6,641.5,246.9,625.3,234.3z"/>
		<linearGradient id="SVGID_4_" gradientUnits="userSpaceOnUse" x1="120.5887" y1="263.1621" x2="120.5887" y2="251.8184">
			<stop offset="0" style="stop-color:#5CB3FA"/>
			<stop offset="1" style="stop-color:#404040"/>
		</linearGradient>
		<path fill="url(#SVGID_4_)" d="M0,251.8v11.3h239.4c0.3-3.9,0.9-7.7,1.8-11.3H0z"/>
		<linearGradient id="SVGID_5_" gradientUnits="userSpaceOnUse" x1="127.828" y1="235.0439" x2="127.828" y2="223.7178">
			<stop offset="0" style="stop-color:#5CB3FA"/>
			<stop offset="1" style="stop-color:#404040"/>
		</linearGradient>
		<path fill="url(#SVGID_5_)" d="M0,223.7V235l247.8,0c2.2-4,4.9-7.8,7.9-11.3C228.9,223.7,74.8,223.7,0,223.7z"/>
		<linearGradient id="SVGID_6_" gradientUnits="userSpaceOnUse" x1="364.512" y1="234.9707" x2="364.512" y2="41.1191">
			<stop offset="0" style="stop-color:#5CB3FA"/>
			<stop offset="1" style="stop-color:#404040"/>
		</linearGradient>
		<path fill="url(#SVGID_6_)" d="M437.5,74.3c-2.6-3-5.4-5.8-8.3-8.4c-17.2-15.4-39.8-24.8-64.7-24.8c-53.5,0-97,43.5-97,97    c0,19.5,5.8,37.7,15.8,52.9h13.6c-11.4-14.6-18-34-18-52.9c0-47.2,38.4-85.6,85.6-85.6c23,0,43.8,9.1,59.2,23.9    c3,2.9,5.8,6,8.3,9.2c11.3,14.5,18.1,32.7,18.1,52.5c0,17.5-5.3,33.9-14.4,47.5c-2.3,3.5-4.9,6.7-7.6,9.8    c-15.6,17.3-38.1,28.2-63,28.4c0,0-1.8,0-5.1,0c3,3.5,5.6,7.2,7.8,11.2c26.1-0.9,49.6-12.1,66.5-29.6c2.7-2.8,5.3-5.8,7.7-9    c12.3-16.2,19.5-36.4,19.5-58.3C461.5,113.7,452.4,91.4,437.5,74.3z"/>
		<linearGradient id="SVGID_7_" gradientUnits="userSpaceOnUse" x1="271.7997" y1="422.252" x2="271.7997" y2="228.3047">
			<stop offset="0" style="stop-color:#5CB3FA"/>
			<stop offset="1" style="stop-color:#404040"/>
		</linearGradient>
		<path fill="url(#SVGID_7_)" d="M528.3,273.1c-2.2-3.5-4.7-6.8-7.3-10c-0.3-0.3-0.5-0.7-0.8-1c-3.2-3.7-6.6-7.2-10.3-10.3    c-17-14.6-39.1-23.5-63.2-23.5c-24.1,0-46.2,8.9-63.2,23.5c-2.7,2.3-5.2,4.8-7.6,7.3c-1.2,1.3-2.4,2.6-3.6,4    c-2.7,3.2-5.1,6.5-7.4,10c-6.1,9.6-10.6,20.2-13,31.7c-1.2,5.7-2,11.6-2.1,17.7c0,0.9-0.1,1.8-0.1,2.7c0,7.1,0.8,14,2.2,20.7    c0.8,3.9,1.9,7.7,3.2,11.3c5.9,16.8,16.3,31.5,29.7,42.6v-15.4c-7.5-7.8-13.5-17-17.6-27.2c-1.5-3.7-2.7-7.5-3.7-11.3    c-1.6-6.6-2.5-13.5-2.5-20.7c0-5.3,0.5-10.5,1.4-15.5c2.2-11.9,6.8-22.9,13.4-32.5c3.5-5.1,7.5-9.8,11.9-14.1    c4.5-4.3,9.5-8.1,14.9-11.3c12.9-7.7,27.9-12.2,43.9-12.2c16.1,0,31.1,4.4,43.9,12.2c5.4,3.2,10.4,7,14.9,11.3    c3.9,3.7,7.5,7.8,10.7,12.2c4.2,5.8,7.7,12.2,10.3,19c2.2,5.7,3.8,11.6,4.8,17.8c0.3,0.7,0.6,1.4,0.9,2h-0.7    c0.5,3.6,0.7,7.3,0.7,11.1c0,7.1-0.9,14.1-2.5,20.7c-1,3.9-2.2,7.7-3.7,11.3c-12.6,31.2-43.2,53.4-78.8,53.6L0,410.9v11.3l448.3,0    c41.5-0.7,76.7-27.6,89.8-64.9c1.3-3.7,2.4-7.5,3.2-11.3c1.5-6.7,2.2-13.6,2.2-20.7C543.6,306.1,538,288.2,528.3,273.1z"/>
		<g>
			<linearGradient id="SVGID_8_" gradientUnits="userSpaceOnUse" x1="175.9061" y1="336.8926" x2="175.9061" y2="304.8799">
				<stop offset="0" style="stop-color:#5CB3FA"/>
				<stop offset="1" style="stop-color:#404040"/>
			</linearGradient>
			<path fill="url(#SVGID_8_)" d="M307.8,325.5c0,0-209.8-0.6-307.8-0.9v12.3h307.8c15.8,0,30.3-5.4,41.9-14.3     c0.2-6,0.9-12,2.1-17.7C341.3,317.5,325.5,325.5,307.8,325.5z"/>
			<linearGradient id="SVGID_9_" gradientUnits="userSpaceOnUse" x1="307.4851" y1="309" x2="307.4851" y2="199.6396">
				<stop offset="0" style="stop-color:#5CB3FA"/>
				<stop offset="1" style="stop-color:#404040"/>
			</linearGradient>
			<path fill="url(#SVGID_9_)" d="M374.4,251.8c-1.5-6-3.7-11.6-6.6-16.8c-2.2-4-4.9-7.8-7.8-11.2c-12.6-14.7-31.3-24.1-52.1-24.1     c-1.7,0-3.4,0.1-5.1,0.2c-3.9,0.3-7.7,0.9-11.3,1.8c-14.1,3.5-26.5,11.4-35.7,22.1c-3,3.5-5.6,7.3-7.9,11.3     c-2.9,5.2-5.1,10.8-6.6,16.8c-0.9,3.7-1.5,7.5-1.8,11.3c-0.1,1.7-0.2,3.4-0.2,5.1c0,15.2,5,29.3,13.4,40.7h15     c-10.5-10.4-17.1-24.8-17.1-40.7c0-1.7,0.1-3.4,0.2-5.1c0.3-3.9,1.1-7.7,2.2-11.3c1.8-6.1,4.6-11.7,8.2-16.8     c3-4.2,6.6-8,10.7-11.3c8.2-6.6,18.3-11.1,29.3-12.3c0.5-0.1,1-0.1,1.6-0.2c1.7-0.1,3.4-0.2,5.1-0.2c13.6,0,26.1,4.8,36,12.7     c4,3.3,7.6,7.1,10.6,11.3c3.6,5,6.4,10.7,8.2,16.8c1.1,3.6,1.8,7.4,2.2,11.3c0.1,1.7,0.2,3.4,0.2,5.1c0,1.7-0.1,3.3-0.2,4.9     c2.2-3.5,4.7-6.9,7.4-10c1.2-1.4,2.4-2.7,3.6-4C375.5,256.7,375,254.2,374.4,251.8z"/>
		</g>
	</g>
</g>
</svg>