<?xml version="1.0" encoding="utf-8"?>
<!-- Generator: Adobe Illustrator 18.1.0, SVG Export Plug-In . SVG Version: 6.00 Build 0)  -->
<!DOCTYPE svg PUBLIC "-//W3C//DTD SVG 1.1//EN" "http://www.w3.org/Graphics/SVG/1.1/DTD/svg11.dtd">
<svg version="1.1" id="图层_1" xmlns="http://www.w3.org/2000/svg" xmlns:xlink="http://www.w3.org/1999/xlink" x="0px" y="0px"
	 viewBox="0 0 9.8 9.2" enable-background="new 0 0 9.8 9.2" xml:space="preserve">
<g>
	<g>
		<path fill="#fff" d="M9.7,8.7c0.1,0.1,0.1,0.2,0.1,0.2c0,0.1,0,0.1-0.1,0.1c-0.1,0-0.2,0.1-0.4,0.1s-0.4,0-0.6,0
			c-0.2,0-0.4,0-0.6,0s-0.3,0-0.3,0C7.7,9.1,7.7,9.1,7.6,9c0,0-0.1-0.1-0.1-0.1L4.9,5.5L2.2,8.9C2.2,9,2.1,9,2.1,9
			c0,0-0.1,0.1-0.2,0.1c-0.1,0-0.2,0-0.3,0s-0.3,0-0.6,0c-0.2,0-0.4,0-0.6,0s-0.3,0-0.3-0.1S0,9,0,8.9c0-0.1,0-0.1,0.1-0.2l3.4-4.2
			l-3.3-4C0.2,0.4,0.2,0.3,0.2,0.3c0-0.1,0-0.1,0.1-0.2S0.5,0,0.7,0S1,0,1.3,0c0.2,0,0.4,0,0.6,0s0.3,0,0.3,0s0.1,0,0.2,0.1
			s0.1,0.1,0.1,0.1L5,3.4l2.6-3.2c0,0,0.1-0.1,0.1-0.1c0,0,0.1-0.1,0.2-0.1S8,0,8.1,0c0.1,0,0.3,0,0.5,0c0.2,0,0.4,0,0.6,0
			c0.2,0,0.3,0,0.3,0.1c0.1,0,0.1,0.1,0.1,0.1c0,0.1,0,0.1-0.1,0.2l-3.2,4L9.7,8.7z"/>
	</g>
</g>
</svg>
