<?xml version="1.0" encoding="utf-8"?>
<!-- Generator: Adobe Illustrator 18.0.0, SVG Export Plug-In . SVG Version: 6.00 Build 0)  -->
<!DOCTYPE svg PUBLIC "-//W3C//DTD SVG 1.1//EN" "http://www.w3.org/Graphics/SVG/1.1/DTD/svg11.dtd">
<svg version="1.1" id="图层_1" xmlns="http://www.w3.org/2000/svg" xmlns:xlink="http://www.w3.org/1999/xlink" x="0px" y="0px"
	 viewBox="0 0 30 30" enable-background="new 0 0 30 30" xml:space="preserve">
<g>
	<path fill-rule="evenodd" clip-rule="evenodd" fill="#0080ed" d="M21.5,9.3c-0.5-0.4-1.3-0.3-1.7,0.3l-6.6,8.9l-3.1-3.8
		c-0.4-0.5-1.2-0.6-1.7-0.2C8,15,7.9,15.7,8.3,16.2l4,5c0.2,0.3,0.6,0.4,0.9,0.4c0,0,0,0,0,0c0.4,0,0.7-0.2,0.9-0.5L21.7,11
		C22.1,10.5,22,9.7,21.5,9.3L21.5,9.3z"/>
	<path fill-rule="evenodd" clip-rule="evenodd" fill="#0080ed" d="M15,0C6.7,0,0,6.7,0,15c0,8.3,6.7,15,15,15c8.3,0,15-6.7,15-15
		C30,6.7,23.3,0,15,0L15,0z M15,27.1C8.3,27.1,2.9,21.7,2.9,15C2.9,8.3,8.3,2.9,15,2.9c6.7,0,12.1,5.4,12.1,12.1
		C27.1,21.7,21.7,27.1,15,27.1L15,27.1z"/>
</g>
</svg>
