<?xml version="1.0" encoding="utf-8"?>
<!-- Generator: Adobe Illustrator 18.0.0, SVG Export Plug-In . SVG Version: 6.00 Build 0)  -->
<!DOCTYPE svg PUBLIC "-//W3C//DTD SVG 1.1//EN" "http://www.w3.org/Graphics/SVG/1.1/DTD/svg11.dtd">
<svg version="1.1" id="图层_1" xmlns="http://www.w3.org/2000/svg" xmlns:xlink="http://www.w3.org/1999/xlink" x="0px" y="0px"
	 viewBox="0 0 30 30" enable-background="new 0 0 30 30" xml:space="preserve">
<g>
	<path fill="#acacac" d="M0,15c0-0.4,0.2-0.8,0.5-1l8.6-7l0,0l8.5-7l1.1,1.3l-8.3,6.8l0,0l-8.5,7l8.5,7l0,0l8.3,6.8l-1.1,1.3l-8.5-7
		l0,0l-8.5-7l-0.1-0.1l0,0l0,0C0.2,15.7,0,15.4,0,15L0,15z M8,14.1h22v1.7H8V14.1L8,14.1z"/>
</g>
</svg>
