<?xml version="1.0" encoding="utf-8"?>
<!-- Generator: Adobe Illustrator 18.0.0, SVG Export Plug-In . SVG Version: 6.00 Build 0)  -->
<!DOCTYPE svg PUBLIC "-//W3C//DTD SVG 1.1//EN" "http://www.w3.org/Graphics/SVG/1.1/DTD/svg11.dtd">
<svg version="1.1" id="图层_1" xmlns="http://www.w3.org/2000/svg" xmlns:xlink="http://www.w3.org/1999/xlink" x="0px" y="0px"
	 viewBox="0 0 30 30" enable-background="new 0 0 30 30" xml:space="preserve">
<g>
	<path fill-rule="evenodd" clip-rule="evenodd" fill="#474747" d="M4.1,22.6c-0.5,0.1-1,0.2-1.4,0.3c-0.7,0.2-1.3,0-1.7-0.6
		c-0.5-0.8-0.9-1.7-1-2.6c0-0.2,0-0.5,0-0.7c0.1-0.4,0.3-0.6,0.6-0.7c0.8-0.4,1.5-0.9,2-1.7c0.8-1.1,0.6-2.7-0.4-3.6
		c-0.4-0.4-0.9-0.8-1.5-1.1C0.2,11.6,0,11.1,0,10.5c0-1.2,0.4-2.2,1.2-3.2c0.1-0.1,0.1-0.1,0.2-0.2C1.6,7,1.9,6.9,2.3,7
		c0.3,0.1,0.7,0.2,1,0.3c1.1,0.2,2.2,0,3.1-0.8c0.3-0.3,0.5-0.6,0.6-1c0.3-1,0.3-2,0.1-3C6.9,2,7.1,1.6,7.4,1.3
		C7.7,1,8.2,0.7,8.7,0.5c0.6-0.3,1.3-0.4,2-0.5c0.6-0.1,0.9,0.1,1.2,0.7c0.3,0.7,0.8,1.4,1.5,1.8c1.1,0.7,2.3,0.6,3.5,0
		c0.6-0.4,1.1-0.9,1.4-1.6c0.1-0.3,0.3-0.5,0.6-0.7C18.9,0,19.2,0,19.4,0c1,0.1,2,0.5,2.7,1.2c0.1,0.1,0.2,0.2,0.4,0.4
		c0.3,0.4,0.4,0.7,0.2,1.2c-0.1,0.3-0.2,0.7-0.3,1c-0.3,1.8,0.9,3.3,2.3,3.6c0.9,0.2,1.8,0.1,2.7-0.3c0.4-0.2,0.9-0.1,1.3,0.2
		c0.5,0.5,0.8,1.1,1,1.8c0.1,0.4,0.2,0.9,0.3,1.3c0.1,0.6-0.2,1.1-0.8,1.3c-0.9,0.3-1.5,0.9-2,1.8C26.5,15,27,17.2,28.9,18
		c0.5,0.2,0.8,0.5,1,1c0.1,0.3,0.1,0.6,0,0.9c-0.2,0.8-0.4,1.6-1,2.3c-0.5,0.6-1.1,0.8-1.8,0.6c-0.6-0.2-1.2-0.3-1.8-0.2
		c-0.6,0.1-1.2,0.1-1.7,0.6c-0.7,0.6-1.1,1.4-1.1,2.3c0,0.6,0.1,1.2,0.3,1.7c0.3,0.6,0.1,1.2-0.4,1.6c-0.8,0.6-1.7,1-2.7,1.2
		c-0.7,0.1-1.1,0-1.5-0.9c-0.4-0.9-1-1.7-2-2c-1.1-0.4-2.2-0.2-3.1,0.5c-0.5,0.4-0.9,1-1.2,1.6c-0.2,0.6-0.7,0.8-1.3,0.8
		c-0.5,0-1-0.2-1.4-0.3c-0.6-0.2-1.2-0.5-1.8-0.9c-0.1-0.1-0.3-0.2-0.4-0.3c-0.3-0.3-0.4-0.7-0.3-1.2C6.8,26.9,7,26.5,7,26.1
		c0.2-1.2-0.2-2.4-1.2-3.1c-0.4-0.3-0.8-0.3-1.3-0.4C4.4,22.7,4.3,22.6,4.1,22.6C4.1,22.6,4.1,22.6,4.1,22.6L4.1,22.6z M15,22
		c4,0,7-3.3,7-7c0-3.9-3.1-7-7-7c-3.9,0-7,3.1-7,7C8,18.8,11.1,22,15,22L15,22z"/>
	<path fill-rule="evenodd" clip-rule="evenodd" fill="#474747" d="M4.1,22.6c-0.5,0.1-1,0.2-1.4,0.3c-0.7,0.2-1.3,0-1.7-0.6
		c-0.5-0.8-0.9-1.7-1-2.6c0-0.2,0-0.5,0-0.7c0.1-0.4,0.3-0.6,0.6-0.7c0.8-0.4,1.5-0.9,2-1.7c0.8-1.1,0.6-2.7-0.4-3.6
		c-0.4-0.4-0.9-0.8-1.5-1.1C0.2,11.6,0,11.1,0,10.5c0-1.2,0.4-2.2,1.2-3.2c0.1-0.1,0.1-0.1,0.2-0.2C1.6,7,1.9,6.9,2.3,7
		c0.3,0.1,0.7,0.2,1,0.3c1.1,0.2,2.2,0,3.1-0.8c0.3-0.3,0.5-0.6,0.6-1c0.3-1,0.3-2,0.1-3C6.9,2,7.1,1.6,7.4,1.3
		C7.7,1,8.2,0.7,8.7,0.5c0.6-0.3,1.3-0.4,2-0.5c0.6-0.1,0.9,0.1,1.2,0.7c0.3,0.7,0.8,1.4,1.5,1.8c1.1,0.7,2.3,0.6,3.5,0
		c0.6-0.4,1.1-0.9,1.4-1.6c0.1-0.3,0.3-0.5,0.6-0.7C18.9,0,19.2,0,19.4,0c1,0.1,2,0.5,2.7,1.2c0.1,0.1,0.2,0.2,0.4,0.4
		c0.3,0.4,0.4,0.7,0.2,1.2c-0.1,0.3-0.2,0.7-0.3,1c-0.3,1.8,0.9,3.3,2.3,3.6c0.9,0.2,1.8,0.1,2.7-0.3c0.4-0.2,0.9-0.1,1.3,0.2
		c0.5,0.5,0.8,1.1,1,1.8c0.1,0.4,0.2,0.9,0.3,1.3c0.1,0.6-0.2,1.1-0.8,1.3c-0.9,0.3-1.5,0.9-2,1.8C26.5,15,27,17.2,28.9,18
		c0.5,0.2,0.8,0.5,1,1c0.1,0.3,0.1,0.6,0,0.9c-0.2,0.8-0.4,1.6-1,2.3c-0.5,0.6-1.1,0.8-1.8,0.6c-0.6-0.2-1.2-0.3-1.8-0.2
		c-0.6,0.1-1.2,0.1-1.7,0.6c-0.7,0.6-1.1,1.4-1.1,2.3c0,0.6,0.1,1.2,0.3,1.7c0.3,0.6,0.1,1.2-0.4,1.6c-0.8,0.6-1.7,1-2.7,1.2
		c-0.7,0.1-1.1,0-1.5-0.9c-0.4-0.9-1-1.7-2-2c-1.1-0.4-2.2-0.2-3.1,0.5c-0.5,0.4-0.9,1-1.2,1.6c-0.2,0.6-0.7,0.8-1.3,0.8
		c-0.5,0-1-0.2-1.4-0.3c-0.6-0.2-1.2-0.5-1.8-0.9c-0.1-0.1-0.3-0.2-0.4-0.3c-0.3-0.3-0.4-0.7-0.3-1.2C6.8,26.9,7,26.5,7,26.1
		c0.2-1.2-0.2-2.4-1.2-3.1c-0.4-0.3-0.8-0.3-1.3-0.4C4.4,22.7,4.3,22.6,4.1,22.6C4.1,22.6,4.1,22.6,4.1,22.6L4.1,22.6z M15,22
		c4,0,7-3.3,7-7c0-3.9-3.1-7-7-7c-3.9,0-7,3.1-7,7C8,18.8,11.1,22,15,22L15,22z"/>
</g>
</svg>
