<svg xmlns="http://www.w3.org/2000/svg" xmlns:xlink="http://www.w3.org/1999/xlink" version="1.1" x="0px" y="0px" viewBox="1256.3 953.2 35.3 48.1" enable-background="new 1256.3 953.2 35.3 48.1" xml:space="preserve" width="35.29999923706055" height="48.099998474121094">
<g id="bg">
</g>
<g id="flag">
</g>
<g id="back">
</g>
<g id="front_mountain">
</g>
<g id="infographic">
	<g>
		<g>
			<path fill="#FFFFFF" d="M1274,1001.3l-1.7-2c-1.6-2-16-19.4-16-28.5c0-9.7,7.9-17.6,17.6-17.6c9.7,0,17.6,7.9,17.6,17.6     c0,9.1-14.3,26.5-16,28.5L1274,1001.3z M1274,957.5c-7.3,0-13.3,6-13.3,13.3c0,5.6,8.4,17.5,13.3,23.6c4.8-6.1,13.3-18,13.3-23.6     C1287.2,963.5,1281.3,957.5,1274,957.5z"/>
		</g>
		<g>
			<path fill="#FFFFFF" d="M1274,977.4c-4.1,0-7.4-3.3-7.4-7.4c0-4.1,3.3-7.4,7.4-7.4c4.1,0,7.4,3.3,7.4,7.4     C1281.4,974,1278,977.4,1274,977.4z M1274,966.9c-1.7,0-3,1.4-3,3c0,1.7,1.4,3,3,3c1.7,0,3-1.4,3-3     C1277,968.3,1275.6,966.9,1274,966.9z"/>
		</g>
	</g>
</g>
<g id="fler">
</g>
<g id="deer">
</g>
</svg>