<svg xmlns="http://www.w3.org/2000/svg" xmlns:xlink="http://www.w3.org/1999/xlink" version="1.1" id="图层_1" x="0px" y="0px" viewBox="1855 -918.6 330.5 436.1" enable-background="new 1855 -918.6 330.5 436.1" xml:space="preserve" width="330.5" height="436.1000061035156">
<g>
	<g>
		<g>
			<g>
				<linearGradient id="SVGID_1_" gradientUnits="userSpaceOnUse" x1="2111.9832" y1="-590.5775" x2="2115.2292" y2="-590.5775">
					<stop offset="0" style="stop-color:#B52A22"/>
					<stop offset="1" style="stop-color:#C7281D"/>
				</linearGradient>
				<path fill="url(#SVGID_1_)" d="M2112.8-588.9c-0.2,0-0.3-0.1-0.6-0.2c-0.3-0.3-0.3-0.8-0.1-1.1l1.7-1.8c0.3-0.3,0.8-0.3,1.1-0.1      c0.3,0.3,0.3,0.8,0.1,1.1l-1.7,1.8C2113.3-589,2113-588.9,2112.8-588.9z"/>
			</g>
			<g>
				<linearGradient id="SVGID_2_" gradientUnits="userSpaceOnUse" x1="2118.8611" y1="-614.8416" x2="2176.2734" y2="-614.8416">
					<stop offset="0" style="stop-color:#B52A22"/>
					<stop offset="1" style="stop-color:#C7281D"/>
				</linearGradient>
				<path fill="url(#SVGID_2_)" d="M2119.7-596.5c-0.2,0-0.3-0.1-0.6-0.2c-0.3-0.3-0.3-0.8-0.1-1.1l3.2-3.5c0.3-0.3,0.8-0.3,1.1-0.1      c0.3,0.3,0.3,0.8,0.1,1.1l-3.2,3.5C2120.1-596.6,2119.9-596.5,2119.7-596.5z M2127.9-605.8c-0.2,0-0.3-0.1-0.6-0.2      c-0.3-0.3-0.3-0.8-0.1-1.1l3.2-3.5c0.3-0.3,0.8-0.3,1.1-0.1c0.3,0.3,0.3,0.8,0.1,1.1l-3.2,3.5      C2128.4-605.9,2128.2-605.8,2127.9-605.8z M2137.2-613.9c-0.3,0-0.6-0.2-0.8-0.5c-0.2-0.5,0-0.9,0.5-1.1l4.3-1.9      c0.5-0.2,0.9,0,1.1,0.5c0.2,0.5,0,0.9-0.5,1.1l-4.3,1.9C2137.4-613.9,2137.3-613.9,2137.2-613.9z M2148.4-619.1      c-0.3,0-0.6-0.2-0.8-0.5c-0.2-0.5,0-0.9,0.5-1.1l4.3-1.9c0.5-0.2,0.9,0,1.1,0.5s0,0.9-0.5,1.1l-4.3,1.9      C2148.7-619.1,2148.6-619.1,2148.4-619.1z M2159.7-624.4c-0.3,0-0.6-0.2-0.8-0.5c-0.2-0.5,0-0.9,0.5-1.1l4.3-1.9      c0.5-0.2,0.9,0,1.1,0.5c0.2,0.5,0,0.9-0.5,1.1l-4.3,1.9C2160.1-624.4,2159.8-624.4,2159.7-624.4z M2171.1-629.6      c-0.3,0-0.6-0.2-0.8-0.5c-0.2-0.5,0-0.9,0.5-1.1l4.3-1.9c0.5-0.2,0.9,0,1.1,0.5c0.2,0.5,0,0.9-0.5,1.1l-4.3,1.9      C2171.3-629.7,2171.2-629.6,2171.1-629.6z"/>
			</g>
			<g>
				<linearGradient id="SVGID_3_" gradientUnits="userSpaceOnUse" x1="2181.5085" y1="-636.7845" x2="2185.5435" y2="-636.7845">
					<stop offset="0" style="stop-color:#B52A22"/>
					<stop offset="1" style="stop-color:#C7281D"/>
				</linearGradient>
				<path fill="url(#SVGID_3_)" d="M2182.4-634.9c-0.3,0-0.6-0.2-0.8-0.5c-0.2-0.5,0-0.9,0.5-1.1l0.8-0.3l-0.7-0.3      c-0.5-0.2-0.6-0.7-0.3-1.1s0.7-0.6,1.1-0.3l2.1,1.1c0.2,0.1,0.5,0.5,0.5,0.8c0,0.3-0.2,0.6-0.5,0.7l-2.3,1      C2182.6-634.9,2182.5-634.9,2182.4-634.9z"/>
			</g>
			<g>
				<linearGradient id="SVGID_4_" gradientUnits="userSpaceOnUse" x1="2038.6029" y1="-678.1761" x2="2176.2974" y2="-678.1761">
					<stop offset="0" style="stop-color:#B52A22"/>
					<stop offset="1" style="stop-color:#C7281D"/>
				</linearGradient>
				<path fill="url(#SVGID_4_)" d="M2175.4-640.8c-0.1,0-0.2,0-0.3-0.1l-4.3-2.3c-0.5-0.2-0.6-0.7-0.3-1.1c0.2-0.5,0.7-0.6,1.1-0.3      l4.3,2.3c0.5,0.2,0.6,0.7,0.3,1.1C2176-641,2175.6-640.8,2175.4-640.8z M2164-646.9c-0.1,0-0.2,0-0.3-0.1l-4.3-2.3      c-0.5-0.2-0.6-0.7-0.3-1.1c0.2-0.5,0.7-0.6,1.1-0.3l4.3,2.3c0.5,0.2,0.6,0.7,0.3,1.1C2164.6-647,2164.3-646.9,2164-646.9z       M2152.6-653c-0.1,0-0.2,0-0.3-0.1l-2.8-1.5c-0.1,0-0.2-0.1-0.2-0.2l-1-1.4c-0.2-0.3-0.2-0.9,0.1-1.1c0.3-0.2,0.9-0.2,1.1,0.1      l0.9,1.1l2.6,1.5c0.5,0.2,0.6,0.7,0.3,1.1C2153.2-653.1,2153-653,2152.6-653z M2144-662.3c-0.2,0-0.5-0.1-0.7-0.3l-2.9-3.8      c-0.2-0.3-0.2-0.9,0.1-1.1c0.3-0.2,0.9-0.2,1.1,0.1l2.9,3.8c0.2,0.3,0.2,0.9-0.1,1.1C2144.4-662.4,2144.3-662.3,2144-662.3z       M2136.4-672.6c-0.2,0-0.5-0.1-0.7-0.3l-2.9-3.8c-0.2-0.3-0.2-0.9,0.1-1.1c0.3-0.2,0.9-0.2,1.1,0.1l2.9,3.8      c0.2,0.3,0.2,0.9-0.1,1.1C2136.7-672.6,2136.5-672.6,2136.4-672.6z M2126.7-680.6c-0.1,0-0.2,0-0.5-0.1l-4.3-2.4      c-0.5-0.2-0.6-0.7-0.3-1.1c0.2-0.5,0.7-0.6,1.1-0.3l4.3,2.4c0.5,0.2,0.6,0.7,0.3,1.1C2127.2-680.8,2126.9-680.6,2126.7-680.6z       M2115.4-686.8c-0.1,0-0.2,0-0.5-0.1l-4.2-2.4c-0.5-0.2-0.6-0.7-0.3-1.1c0.2-0.5,0.7-0.6,1.1-0.3l4.2,2.4      c0.5,0.2,0.6,0.7,0.3,1.1C2116-687,2115.6-686.8,2115.4-686.8z M2104.1-693c-0.1,0-0.2,0-0.5-0.1l-4.2-2.4      c-0.5-0.2-0.6-0.7-0.3-1.1c0.2-0.5,0.7-0.6,1.1-0.3l4.2,2.4c0.5,0.2,0.6,0.7,0.3,1.1C2104.7-693.3,2104.5-693,2104.1-693z       M2092.9-699.3c-0.1,0-0.2,0-0.5-0.1l-4.2-2.4c-0.5-0.2-0.6-0.7-0.3-1.1c0.2-0.5,0.7-0.6,1.1-0.3l4.2,2.4      c0.5,0.2,0.6,0.7,0.3,1.1C2093.4-699.5,2093.2-699.3,2092.9-699.3z M2081.6-705.6c-0.1,0-0.2,0-0.5-0.1l-4.2-2.4      c-0.5-0.2-0.6-0.7-0.3-1.1c0.2-0.5,0.7-0.6,1.1-0.3l4.2,2.4c0.5,0.2,0.6,0.7,0.3,1.1C2082.1-705.7,2081.9-705.6,2081.6-705.6z       M2069.5-709.4h-0.1l-4.7-0.7c-0.5-0.1-0.8-0.5-0.7-0.9s0.5-0.8,0.9-0.7l4.7,0.7c0.5,0.1,0.8,0.5,0.7,0.9      C2070.3-709.7,2070-709.4,2069.5-709.4z M2056.8-711.3h-0.1l-4.7-0.7c-0.5-0.1-0.8-0.5-0.7-0.9c0.1-0.5,0.5-0.8,0.9-0.7l4.7,0.7      c0.5,0.1,0.8,0.5,0.7,0.9C2057.6-711.7,2057.2-711.3,2056.8-711.3z M2044.1-713.2h-0.1l-4.7-0.7c-0.5-0.1-0.8-0.5-0.7-0.9      c0.1-0.5,0.5-0.8,0.9-0.7l4.7,0.7c0.5,0.1,0.8,0.5,0.7,0.9C2044.8-713.6,2044.5-713.2,2044.1-713.2z"/>
			</g>
			<g>
				<linearGradient id="SVGID_5_" gradientUnits="userSpaceOnUse" x1="2028.1094" y1="-716.7162" x2="2032.3328" y2="-716.7162">
					<stop offset="0" style="stop-color:#B52A22"/>
					<stop offset="1" style="stop-color:#C7281D"/>
				</linearGradient>
				<path fill="url(#SVGID_5_)" d="M2031.4-715.1h-0.1l-2.5-0.3c-0.3,0-0.7-0.3-0.7-0.7c-0.1-0.3,0.1-0.7,0.5-0.9l2.3-1.1      c0.5-0.2,0.9,0,1.1,0.3s0.1,0.8-0.2,1c0.3,0.1,0.7,0.5,0.6,0.9C2032.1-715.4,2031.7-715.1,2031.4-715.1z"/>
			</g>
			<g>
				<linearGradient id="SVGID_6_" gradientUnits="userSpaceOnUse" x1="2037.2937" y1="-745.4935" x2="2141.823" y2="-745.4935">
					<stop offset="0" style="stop-color:#B52A22"/>
					<stop offset="1" style="stop-color:#C7281D"/>
				</linearGradient>
				<path fill="url(#SVGID_6_)" d="M2038.2-720.1c-0.3,0-0.6-0.1-0.8-0.5c-0.2-0.5,0-0.9,0.3-1.1l4.2-2.1c0.5-0.2,0.9,0,1.1,0.3      c0.2,0.5,0,0.9-0.3,1.1l-4.2,2.1C2038.4-720.1,2038.3-720.1,2038.2-720.1z M2049.3-725.7c-0.3,0-0.6-0.1-0.8-0.5      c-0.2-0.5,0-0.9,0.3-1.1l4.2-2.1c0.5-0.2,0.9,0,1.1,0.3c0.2,0.5,0,0.9-0.3,1.1l-4.2,2.1C2049.6-725.7,2049.4-725.7,2049.3-725.7      z M2060.5-731.3c-0.3,0-0.6-0.1-0.8-0.5c-0.2-0.5,0-0.9,0.3-1.1l4.2-2.1c0.5-0.2,0.9,0,1.1,0.3c0.2,0.5,0,0.9-0.3,1.1l-4.2,2.1      C2060.7-731.4,2060.6-731.3,2060.5-731.3z M2071.7-736.9c-0.3,0-0.6-0.1-0.8-0.5c-0.2-0.5,0-0.9,0.3-1.1l4.2-2.1      c0.5-0.2,0.9,0,1.1,0.3c0.2,0.5,0,0.9-0.3,1.1l-4.2,2.1C2071.9-736.9,2071.8-736.9,2071.7-736.9z M2083.5-740      c-0.5,0-0.8-0.3-0.8-0.8c0-0.5,0.3-0.8,0.8-0.9l4.6-0.3c0.5,0,0.8,0.3,0.9,0.8c0,0.5-0.3,0.8-0.8,0.9L2083.5-740      C2083.6-740,2083.6-740,2083.5-740z M2096-740.9c-0.5,0-0.8-0.3-0.8-0.8c0-0.5,0.3-0.8,0.8-0.9l4.6-0.3c0.5,0,0.8,0.3,0.9,0.8      c0,0.5-0.3,0.9-0.8,0.9L2096-740.9L2096-740.9z M2108-743.2c-0.2,0-0.6-0.1-0.7-0.3c-0.2-0.3-0.1-0.9,0.2-1.1l3.8-2.7      c0.3-0.2,0.9-0.1,1.1,0.2c0.2,0.3,0.1,0.9-0.2,1.1l-3.8,2.7C2108.3-743.3,2108.1-743.2,2108-743.2z M2118.2-750.3      c-0.2,0-0.6-0.1-0.7-0.3c-0.2-0.3-0.1-0.9,0.2-1.1l3.8-2.7c0.3-0.2,0.9-0.1,1.1,0.2c0.2,0.3,0.1,0.9-0.2,1.1l-3.8,2.7      C2118.6-750.4,2118.3-750.3,2118.2-750.3z M2128.5-757.4c-0.2,0-0.6-0.1-0.7-0.3c-0.2-0.3-0.1-0.9,0.2-1.1l3-2.1l0.6-0.6      c0.3-0.3,0.8-0.3,1.1,0c0.3,0.3,0.3,0.8,0,1.1l-0.7,0.7l-0.1,0.1l-3,2.1C2128.8-757.5,2128.7-757.4,2128.5-757.4z M2137.7-765.9      c-0.2,0-0.5-0.1-0.6-0.2c-0.3-0.3-0.3-0.8,0-1.1l3.3-3.4c0.3-0.3,0.8-0.3,1.1,0c0.3,0.3,0.3,0.8,0,1.1l-3.3,3.4      C2138.1-766,2137.8-765.9,2137.7-765.9z"/>
			</g>
			<g>
				<linearGradient id="SVGID_7_" gradientUnits="userSpaceOnUse" x1="2145.1228" y1="-777.222" x2="2148.8984" y2="-777.222">
					<stop offset="0" style="stop-color:#B52A22"/>
					<stop offset="1" style="stop-color:#C7281D"/>
				</linearGradient>
				<path fill="url(#SVGID_7_)" d="M2146.3-774.9c-0.2,0-0.5-0.1-0.6-0.2c-0.3-0.3-0.3-0.8,0-1.1l1-1l-1.2-0.8      c-0.3-0.2-0.6-0.8-0.2-1.1c0.2-0.3,0.8-0.5,1.1-0.2l2.1,1.2c0.2,0.1,0.3,0.3,0.3,0.6s0,0.5-0.2,0.7l-1.7,1.8      C2146.8-775,2146.5-774.9,2146.3-774.9z"/>
			</g>
			<g>
				<linearGradient id="SVGID_8_" gradientUnits="userSpaceOnUse" x1="2087.1772" y1="-810.6735" x2="2139.3687" y2="-810.6735">
					<stop offset="0" style="stop-color:#B52A22"/>
					<stop offset="1" style="stop-color:#C7281D"/>
				</linearGradient>
				<path fill="url(#SVGID_8_)" d="M2138.5-782.6c-0.1,0-0.3,0-0.5-0.1l-4.5-2.7c-0.3-0.2-0.6-0.8-0.2-1.1c0.2-0.3,0.8-0.5,1.1-0.2      l4.5,2.7c0.3,0.2,0.6,0.8,0.2,1.1C2139-782.7,2138.8-782.6,2138.5-782.6z M2127-790.5c-0.2,0-0.6-0.1-0.7-0.5l-2.7-4.5      c-0.2-0.3-0.1-0.9,0.3-1.1c0.3-0.2,0.9-0.1,1.1,0.3l2.7,4.5c0.2,0.3,0.1,0.9-0.3,1.1C2127.4-790.5,2127.1-790.5,2127-790.5z       M2119.9-802.5c-0.2,0-0.6-0.1-0.7-0.5l-2.7-4.5c-0.2-0.3-0.1-0.9,0.3-1.1c0.3-0.2,0.9-0.1,1.1,0.3l2.7,4.5      c0.2,0.3,0.1,0.9-0.3,1.1C2120.1-802.5,2120-802.5,2119.9-802.5z M2110.9-813c-0.2,0-0.3-0.1-0.6-0.2l-4.1-3.4      c-0.3-0.3-0.3-0.8-0.1-1.1c0.3-0.3,0.8-0.3,1.1-0.1l4.1,3.4c0.3,0.3,0.3,0.8,0.1,1.1C2111.4-813.1,2111.1-813,2110.9-813z       M2100.2-822c-0.2,0-0.3-0.1-0.6-0.2l-1-0.8l-0.1-0.1c0,0-1-1.2-2.5-3.2c-0.3-0.3-0.2-0.9,0.1-1.1c0.3-0.3,0.9-0.2,1.1,0.1      c1.4,1.7,2.3,2.8,2.5,3l0.9,0.8c0.3,0.3,0.3,0.8,0.1,1.1C2100.6-822.2,2100.4-822,2100.2-822z M2091.3-833      c-0.2,0-0.5-0.1-0.7-0.3c-1.1-1.4-2.1-2.8-3.3-4.2c-0.2-0.3-0.2-0.9,0.1-1.1c0.3-0.2,0.9-0.2,1.1,0.1c1,1.4,2.1,2.8,3.3,4.2      c0.2,0.3,0.2,0.9-0.1,1.1C2091.6-833,2091.4-833,2091.3-833z"/>
			</g>
			<g>
				<linearGradient id="SVGID_9_" gradientUnits="userSpaceOnUse" x1="2080.7949" y1="-845.9997" x2="2083.5054" y2="-845.9997">
					<stop offset="0" style="stop-color:#B52A22"/>
					<stop offset="1" style="stop-color:#C7281D"/>
				</linearGradient>
				<path fill="url(#SVGID_9_)" d="M2082.8-844.1c-0.2,0-0.6-0.1-0.7-0.3c-1.2-1.8-1.4-2.3-1.4-2.6c0-0.5,0.3-0.8,0.8-0.8      c0.5,0,0.8,0.3,0.8,0.8c0,0.1,0.2,0.6,1,1.8c0.2,0.3,0.1,0.9-0.2,1.1C2083.2-844.1,2082.9-844.1,2082.8-844.1z"/>
			</g>
		</g>
		<g>
			<linearGradient id="SVGID_10_" gradientUnits="userSpaceOnUse" x1="2077.863" y1="-883.9305" x2="2105.3533" y2="-883.9305">
				<stop offset="0" style="stop-color:#B52A22"/>
				<stop offset="1" style="stop-color:#C7281D"/>
			</linearGradient>
			<path fill="url(#SVGID_10_)" d="M2078-849.8c-0.1-0.1-0.1-0.2-0.1-0.5l0.5-5.2c0-0.5,0.5-0.8,0.9-0.7c0.5,0,0.8,0.5,0.7,0.9     l-0.5,5.2c0,0.5-0.5,0.8-0.9,0.7C2078.3-849.3,2078.1-849.6,2078-849.8z M2080-863.2c-0.1-0.2-0.1-0.6,0-0.8l2.8-4.3     c0.2-0.3,0.8-0.5,1.1-0.2c0.3,0.2,0.5,0.8,0.2,1.1l-2.8,4.3c-0.2,0.3-0.8,0.5-1.1,0.2C2080.1-863,2080-863.1,2080-863.2z      M2087.4-874.7c-0.1-0.2-0.1-0.6,0-0.8l2.8-4.3c0.2-0.3,0.8-0.5,1.1-0.2c0.3,0.2,0.5,0.8,0.2,1.1l-2.8,4.3     c-0.2,0.3-0.8,0.5-1.1,0.2C2087.6-874.4,2087.4-874.5,2087.4-874.7z M2092.7-887.1c-0.1-0.1-0.1-0.3-0.1-0.6l1.2-5     c0.1-0.5,0.6-0.7,1-0.6c0.5,0.1,0.7,0.6,0.6,1l-1.2,5c-0.1,0.5-0.6,0.7-1,0.6C2093-886.6,2092.9-886.9,2092.7-887.1z M2096-900.4     c-0.1-0.1-0.1-0.3-0.1-0.6l0.3-1.2v-0.1c0,0,0.7-1.4,1.7-3.5c0.2-0.5,0.7-0.6,1-0.3c0.5,0.2,0.6,0.7,0.3,1.1     c-0.9,1.8-1.5,3.2-1.6,3.4l-0.3,1.1c-0.1,0.5-0.6,0.7-1,0.6C2096.4-900.1,2096.1-900.2,2096-900.4z M2101.7-912.8     c-0.1-0.2-0.1-0.5,0-0.7c0.8-1.6,1.5-3.2,2.3-4.6c0.2-0.5,0.7-0.6,1-0.3s0.6,0.7,0.3,1.1c-0.8,1.5-1.5,3-2.3,4.6     c-0.2,0.5-0.7,0.6-1,0.3C2101.9-912.6,2101.8-912.7,2101.7-912.8z"/>
		</g>
	</g>
	<g>
		<g>
			<linearGradient id="SVGID_11_" gradientUnits="userSpaceOnUse" x1="2103.6475" y1="-581.5912" x2="2108.1182" y2="-581.5912">
				<stop offset="0" style="stop-color:#B52A22"/>
				<stop offset="1" style="stop-color:#C7281D"/>
			</linearGradient>
			<path fill="url(#SVGID_11_)" d="M2104.5-579.8c-0.3,0-0.5-0.1-0.7-0.4c-0.2-0.4-0.1-0.9,0.2-1.1c1.9-1.2,2.8-1.9,2.8-1.9     c0.4-0.3,0.9-0.2,1.2,0.2c0.3,0.4,0.2,0.9-0.2,1.2c0,0-0.9,0.7-2.9,1.9C2104.8-579.8,2104.6-579.8,2104.5-579.8z"/>
			<g>
				<linearGradient id="SVGID_12_" gradientUnits="userSpaceOnUse" x1="2094.8594" y1="-576.4023" x2="2099.6614" y2="-576.4023">
					<stop offset="0" style="stop-color:#B52A22"/>
					<stop offset="1" style="stop-color:#C7281D"/>
				</linearGradient>
				<path fill="url(#SVGID_12_)" d="M2095.7-574.7c-0.3,0-0.6-0.2-0.7-0.4c-0.2-0.4-0.1-0.9,0.3-1.1c1.1-0.6,2.1-1.1,3.1-1.7      c0.4-0.2,0.9-0.1,1.1,0.3c0.2,0.4,0.1,0.9-0.3,1.1c-1,0.6-2.1,1.1-3.2,1.7C2095.9-574.8,2095.8-574.7,2095.7-574.7z"/>
				<linearGradient id="SVGID_13_" gradientUnits="userSpaceOnUse" x1="1865.0583" y1="-534.834" x2="2090.0237" y2="-534.834">
					<stop offset="0" style="stop-color:#B52A22"/>
					<stop offset="1" style="stop-color:#C7281D"/>
				</linearGradient>
				<path fill="url(#SVGID_13_)" d="M1865.9-496.5c-0.2,0-0.4-0.1-0.6-0.2c-0.3-0.3-0.4-0.8,0-1.2c1.6-1.7,3.4-3.4,5.2-5.1      c0.3-0.3,0.9-0.3,1.2,0.1c0.3,0.3,0.3,0.9-0.1,1.2c-1.8,1.6-3.5,3.3-5.1,5C1866.3-496.6,1866.1-496.5,1865.9-496.5z       M1876.6-506.2c-0.2,0-0.5-0.1-0.7-0.3c-0.3-0.4-0.2-0.9,0.1-1.2c1.9-1.5,3.8-2.9,5.9-4.3c0.4-0.3,0.9-0.2,1.1,0.2      c0.3,0.4,0.2,0.9-0.2,1.1c-2,1.4-4,2.8-5.8,4.3C1877-506.3,1876.8-506.2,1876.6-506.2z M1888.5-514.5c-0.3,0-0.5-0.1-0.7-0.4      c-0.2-0.4-0.1-0.9,0.3-1.1c2-1.2,4.1-2.5,6.3-3.7c0.4-0.2,0.9-0.1,1.1,0.3c0.2,0.4,0.1,0.9-0.3,1.1c-2.1,1.2-4.2,2.4-6.2,3.6      C1888.8-514.5,1888.7-514.5,1888.5-514.5z M1901.2-521.6c-0.3,0-0.6-0.2-0.7-0.5c-0.2-0.4,0-0.9,0.4-1.1      c2.1-1.1,4.3-2.1,6.6-3.2c0.4-0.2,0.9,0,1.1,0.4c0.2,0.4,0,0.9-0.4,1.1c-2.2,1-4.4,2.1-6.5,3.2      C1901.4-521.6,1901.3-521.6,1901.2-521.6z M1914.3-527.7c-0.3,0-0.6-0.2-0.8-0.5c-0.2-0.4,0-0.9,0.4-1.1      c2.2-0.9,4.4-1.9,6.7-2.8c0.4-0.2,0.9,0,1.1,0.5c0.2,0.4,0,0.9-0.5,1.1c-2.3,0.9-4.5,1.8-6.7,2.8      C1914.5-527.7,1914.4-527.7,1914.3-527.7z M1927.8-533.1c-0.3,0-0.7-0.2-0.8-0.5c-0.2-0.4,0.1-0.9,0.5-1.1      c2.2-0.8,4.5-1.7,6.8-2.5c0.4-0.1,0.9,0.1,1.1,0.5c0.1,0.4-0.1,0.9-0.5,1.1c-2.3,0.8-4.6,1.6-6.8,2.4      C1928-533.1,1927.9-533.1,1927.8-533.1z M1941.5-537.8c-0.3,0-0.7-0.2-0.8-0.6c-0.1-0.4,0.1-0.9,0.5-1c2.3-0.7,4.6-1.5,6.9-2.2      c0.4-0.1,0.9,0.1,1,0.6c0.1,0.4-0.1,0.9-0.6,1c-2.3,0.7-4.6,1.4-6.9,2.2C1941.7-537.8,1941.6-537.8,1941.5-537.8z M1955.4-542      c-0.4,0-0.7-0.2-0.8-0.6c-0.1-0.4,0.1-0.9,0.6-1c2.3-0.6,4.7-1.3,7-1.9c0.4-0.1,0.9,0.1,1,0.6c0.1,0.4-0.1,0.9-0.6,1      c-2.3,0.6-4.7,1.2-7,1.9C1955.6-542,1955.5-542,1955.4-542z M1969.4-545.7c-0.4,0-0.7-0.3-0.8-0.6c-0.1-0.4,0.2-0.9,0.6-1      c2.4-0.6,4.7-1.1,7.1-1.7c0.4-0.1,0.9,0.2,1,0.6c0.1,0.4-0.2,0.9-0.6,1c-2.3,0.5-4.7,1.1-7.1,1.6      C1969.6-545.7,1969.5-545.7,1969.4-545.7z M1983.6-548.8c-0.4,0-0.7-0.3-0.8-0.7c-0.1-0.4,0.2-0.9,0.6-1c4.4-0.9,7-1.3,7-1.3      l0.1,0l0.2,0c0,0,0,0,0,0c0.5,0,0.8,0.4,0.8,0.8c0,0.5-0.4,0.8-0.8,0.8l-0.1,0c-0.4,0.1-2.9,0.5-6.9,1.3      C1983.7-548.8,1983.7-548.8,1983.6-548.8z M1998-550.4c-0.4,0-0.8-0.3-0.8-0.8c0-0.5,0.3-0.8,0.8-0.9c2.4-0.1,4.8-0.2,7.2-0.4      c0.4,0,0.8,0.3,0.9,0.8c0,0.5-0.3,0.8-0.8,0.9C2002.9-550.6,2000.5-550.5,1998-550.4C1998.1-550.4,1998-550.4,1998-550.4z       M2012.5-551.4c-0.4,0-0.8-0.3-0.8-0.7c0-0.5,0.3-0.9,0.7-0.9c2.4-0.2,4.8-0.5,7.2-0.8c0.5-0.1,0.9,0.3,0.9,0.7      c0.1,0.5-0.3,0.9-0.7,0.9C2017.4-551.9,2015-551.6,2012.5-551.4C2012.5-551.4,2012.5-551.4,2012.5-551.4z M2026.9-553.1      c-0.4,0-0.8-0.3-0.8-0.7c-0.1-0.5,0.2-0.9,0.7-0.9c2.4-0.4,4.8-0.8,7.1-1.2c0.4-0.1,0.9,0.2,1,0.7c0.1,0.4-0.2,0.9-0.7,1      c-2.4,0.4-4.8,0.8-7.2,1.2C2027-553.1,2026.9-553.1,2026.9-553.1z M2041.1-555.7c-0.4,0-0.7-0.3-0.8-0.7c-0.1-0.4,0.2-0.9,0.6-1      c2.4-0.5,4.7-1,7-1.6c0.4-0.1,0.9,0.2,1,0.6c0.1,0.4-0.2,0.9-0.6,1c-2.3,0.6-4.7,1.1-7.1,1.6      C2041.2-555.7,2041.2-555.7,2041.1-555.7z M2055.2-559.1c-0.4,0-0.7-0.2-0.8-0.6c-0.1-0.4,0.1-0.9,0.6-1c2.3-0.6,4.7-1.3,6.9-2      c0.4-0.1,0.9,0.1,1,0.5c0.1,0.4-0.1,0.9-0.5,1c-2.3,0.7-4.6,1.4-7,2C2055.4-559.1,2055.3-559.1,2055.2-559.1z M2069.1-563.4      c-0.3,0-0.7-0.2-0.8-0.6c-0.1-0.4,0.1-0.9,0.5-1c2.3-0.8,4.6-1.6,6.8-2.5c0.4-0.2,0.9,0,1.1,0.5c0.2,0.4-0.1,0.9-0.5,1.1      c-2.2,0.9-4.5,1.7-6.8,2.5C2069.2-563.4,2069.1-563.4,2069.1-563.4z M2082.6-568.6c-0.3,0-0.6-0.2-0.8-0.5      c-0.2-0.4,0-0.9,0.4-1.1c2.2-0.9,4.4-1.9,6.6-2.9c0.4-0.2,0.9,0,1.1,0.4c0.2,0.4,0,0.9-0.4,1.1c-2.2,1-4.4,2-6.6,3      C2082.8-568.6,2082.7-568.6,2082.6-568.6z"/>
				<linearGradient id="SVGID_14_" gradientUnits="userSpaceOnUse" x1="1858.4065" y1="-490.5256" x2="1862.1555" y2="-490.5256">
					<stop offset="0" style="stop-color:#B52A22"/>
					<stop offset="1" style="stop-color:#C7281D"/>
				</linearGradient>
				<path fill="url(#SVGID_14_)" d="M1859.2-488.3c-0.2,0-0.3,0-0.5-0.1c-0.4-0.3-0.5-0.8-0.2-1.1c0.7-1,1.4-2,2.1-2.9      c0.3-0.4,0.8-0.4,1.2-0.2c0.4,0.3,0.4,0.8,0.2,1.2c-0.7,0.9-1.4,1.9-2.1,2.9C1859.8-488.4,1859.5-488.3,1859.2-488.3z"/>
			</g>
			<linearGradient id="SVGID_15_" gradientUnits="userSpaceOnUse" x1="1855.0239" y1="-484.792" x2="1858.3677" y2="-484.792">
				<stop offset="0" style="stop-color:#B52A22"/>
				<stop offset="1" style="stop-color:#C7281D"/>
			</linearGradient>
			<path fill="url(#SVGID_15_)" d="M1855.8-482.5c-0.1,0-0.3,0-0.4-0.1c-0.4-0.2-0.5-0.7-0.3-1.1c0.3-0.5,0.6-1,0.9-1.5     c0.3-0.5,0.6-0.9,0.8-1.4c0.2-0.4,0.7-0.5,1.1-0.3c0.4,0.2,0.5,0.7,0.3,1.1c-0.3,0.5-0.6,1-0.9,1.5c-0.3,0.5-0.6,0.9-0.8,1.4     C1856.4-482.7,1856.1-482.5,1855.8-482.5z"/>
		</g>
	</g>
</g>
</svg>