<svg xmlns="http://www.w3.org/2000/svg" xmlns:xlink="http://www.w3.org/1999/xlink" version="1.1" x="0px" y="0px" viewBox="901 1120 655.6 455.7" enable-background="new 901 1120 655.6 455.7" xml:space="preserve" width="655.5999755859375" height="455.70001220703125">
<g id="bg">
</g>
<g id="flag">
</g>
<g id="back">
</g>
<g id="front_mountain">
</g>
<g id="infographic">
</g>
<g id="fler">
</g>
<g id="deer">
	<g>
		<defs>
			<rect id="SVGID_185_" x="901" y="1120" width="655.6" height="455.7"/>
		</defs>
		<clipPath id="SVGID_1_">
			<use xlink:href="#SVGID_185_" overflow="visible"/>
		</clipPath>
		
			<linearGradient id="triangle36_10_" gradientUnits="userSpaceOnUse" x1="-1834.9116" y1="2824.208" x2="-1831.6963" y2="2820.9927" gradientTransform="matrix(33 0 -1.1012 17 64839.4531 -46757.8281)">
			<stop offset="0" style="stop-color:#41545B"/>
			<stop offset="1" style="stop-color:#384C53"/>
		</linearGradient>
		<polygon id="triangle36_3_" clip-path="url(#SVGID_1_)" fill="url(#triangle36_10_)" points="1202.4,1227.4 1246,1264.6     1243.2,1175.7   "/>
		<g opacity="0.62" clip-path="url(#SVGID_1_)">
			<defs>
				<rect id="SVGID_187_" x="901.2" y="1259.8" opacity="0.62" width="655.4" height="253.2"/>
			</defs>
			<clipPath id="SVGID_2_">
				<use xlink:href="#SVGID_187_" overflow="visible"/>
			</clipPath>
			<g clip-path="url(#SVGID_2_)">
				<g>
					
						<linearGradient id="SVGID_3_" gradientUnits="userSpaceOnUse" x1="66.7576" y1="2203.854" x2="67.5457" y2="2272.4229" gradientTransform="matrix(-1 0 0 -1 1007.9999 3647.7593)">
						<stop offset="0" style="stop-color:#567678"/>
						<stop offset="1" style="stop-color:#78938E"/>
					</linearGradient>
					<polygon fill="url(#SVGID_3_)" points="933.4,1434.5 995.6,1434.5 928.1,1380.6 886.7,1434.5      "/>
					<linearGradient id="SVGID_5_" gradientUnits="userSpaceOnUse" x1="851.1926" y1="1344.0134" x2="864.1711" y2="1387.9984">
						<stop offset="0" style="stop-color:#3C404F"/>
						<stop offset="1" style="stop-color:#1E2B3B"/>
					</linearGradient>
					<polygon fill="url(#SVGID_5_)" points="841.9,1434.5 886.7,1434.5 928.1,1380.6 857.2,1360.8 835.5,1375.1 811.8,1434.5             "/>
					
						<linearGradient id="triangle36_11_" gradientUnits="userSpaceOnUse" x1="-1902.5957" y1="2972.6138" x2="-1900.3311" y2="2970.3491" gradientTransform="matrix(-42 0 0 48 -78927 -141293.5156)">
						<stop offset="0" style="stop-color:#9ABDC0"/>
						<stop offset="1" style="stop-color:#AAC2C4"/>
					</linearGradient>
					<polygon id="triangle36_6_" fill="url(#triangle36_11_)" points="995.6,1434.5 928.1,1380.6 1009.8,1373.5      "/>
					<linearGradient id="SVGID_6_" gradientUnits="userSpaceOnUse" x1="866.5565" y1="1385.5551" x2="991.9827" y2="1281.0331">
						<stop offset="0" style="stop-color:#2C3647"/>
						<stop offset="1" style="stop-color:#6E6E85"/>
					</linearGradient>
					<polygon fill="url(#SVGID_6_)" points="928.1,1380.6 955.4,1364 987,1333.8 928.1,1324.5 861.5,1337.3 857.2,1360.8      "/>
					
						<linearGradient id="SVGID_7_" gradientUnits="userSpaceOnUse" x1="-49.2123" y1="2251.6624" x2="-15.4404" y2="2337.7263" gradientTransform="matrix(-1 0 0 -1 1007.9999 3647.7593)">
						<stop offset="0" style="stop-color:#92BBBC"/>
						<stop offset="1" style="stop-color:#9ABDBE"/>
					</linearGradient>
					<polygon fill="url(#SVGID_7_)" points="1058.5,1371.9 1060.3,1384.6 1075.4,1381.4 1009.8,1336.5      "/>
					<linearGradient id="SVGID_8_" gradientUnits="userSpaceOnUse" x1="1016.586" y1="1320.3456" x2="1013.9942" y2="1393.7786">
						<stop offset="0" style="stop-color:#46535D"/>
						<stop offset="1" style="stop-color:#3A5468"/>
					</linearGradient>
					<polygon fill="url(#SVGID_8_)" points="1100.7,1382.2 1011.3,1319.3 1011.3,1319.3 1011.3,1319.3 984.9,1337.3 955.4,1364        928.1,1380.6 1009.8,1373.5 1009.8,1341.3 1075.4,1381.4      "/>
					<linearGradient id="triangle36_12_" gradientUnits="userSpaceOnUse" x1="939.0928" y1="1357.51" x2="994.7256" y2="1292.8206">
						<stop offset="0" style="stop-color:#495D6A"/>
						<stop offset="1" style="stop-color:#797393"/>
					</linearGradient>
					<polygon id="triangle36_5_" fill="url(#triangle36_12_)" points="984.9,1337.3 928.1,1324.5 1011.3,1319.3      "/>
					<linearGradient id="triangle36_13_" gradientUnits="userSpaceOnUse" x1="842.95" y1="1362.0459" x2="952.2086" y2="1270.9971">
						<stop offset="0" style="stop-color:#2C3447"/>
						<stop offset="1" style="stop-color:#93909E"/>
					</linearGradient>
					<polygon id="triangle36_4_" fill="url(#triangle36_13_)" points="928.1,1324.5 863.2,1344.2 856.5,1317.3 895.1,1314.2             "/>
				</g>
				<g>
					<linearGradient id="SVGID_9_" gradientUnits="userSpaceOnUse" x1="1559.8678" y1="1373.5443" x2="1505.2069" y2="1304.546">
						<stop offset="0" style="stop-color:#33424F"/>
						<stop offset="1" style="stop-color:#666C7E"/>
					</linearGradient>
					<polygon fill="url(#SVGID_9_)" points="1601,1332.1 1553.5,1302 1533.8,1310.4 1511.5,1311.6 1481.8,1313 1484.2,1343.9        1497.6,1325.4 1505.7,1338 1502,1341.7 1475,1359.7 1540.3,1383.4 1573.7,1359.7 1566.7,1339.8 1573.8,1340.9      "/>
					
						<linearGradient id="SVGID_11_" gradientUnits="userSpaceOnUse" x1="3343.9897" y1="2172.2971" x2="3322.9724" y2="2258.9927" gradientTransform="matrix(-1 0 -6.480000e-002 -1 4966.5786 3626.5203)">
						<stop offset="0" style="stop-color:#525554"/>
						<stop offset="1" style="stop-color:#5E6261"/>
					</linearGradient>
					<polygon fill="url(#SVGID_11_)" points="1458.8,1452.5 1441.1,1425.6 1475,1359.7 1540.3,1383.4 1507.2,1452.5      "/>
					<linearGradient id="SVGID_12_" gradientUnits="userSpaceOnUse" x1="1446.9971" y1="1335.6385" x2="1511.5378" y2="1335.6385">
						<stop offset="0" style="stop-color:#6E6978"/>
						<stop offset="0.5367" style="stop-color:#606779"/>
						<stop offset="1" style="stop-color:#5A667A"/>
					</linearGradient>
					<polygon fill="url(#SVGID_12_)" points="1475,1359.7 1506.7,1339.6 1511.5,1311.6 1481.8,1313 1447,1332.9      "/>
					<linearGradient id="SVGID_13_" gradientUnits="userSpaceOnUse" x1="1553.8765" y1="1417.9565" x2="1540.0734" y2="1306.1151">
						<stop offset="0" style="stop-color:#253145"/>
						<stop offset="1" style="stop-color:#52565E"/>
					</linearGradient>
					<polygon fill="url(#SVGID_13_)" points="1599.1,1346 1601,1332.1 1553.5,1302 1573.7,1359.7 1540.3,1383.4 1540.3,1383.4        1540.3,1383.4 1497.9,1431.6 1507.2,1452.5 1596.9,1452.5 1600.5,1452.5 1586.1,1374.7      "/>
					<g>
						
							<linearGradient id="SVGID_14_" gradientUnits="userSpaceOnUse" x1="1825.3494" y1="-774.2341" x2="1838.7163" y2="-686.8347" gradientTransform="matrix(-1 0 0 1 3313.3462 2156.5989)">
							<stop offset="0" style="stop-color:#504F4F"/>
							<stop offset="1" style="stop-color:#4D5852"/>
						</linearGradient>
						<polygon fill="url(#SVGID_14_)" points="1458,1384.3 1458,1412.7 1477.7,1452.5 1480.1,1452.5 1513.1,1412.4 1499.8,1408.9               "/>
						
							<linearGradient id="SVGID_15_" gradientUnits="userSpaceOnUse" x1="2528.1736" y1="-692.6433" x2="2536.3306" y2="-759.3054" gradientTransform="matrix(-1 0 0 1 4070.0747 2156.5989)">
							<stop offset="0" style="stop-color:#798885"/>
							<stop offset="1" style="stop-color:#444343"/>
						</linearGradient>
						<polygon fill="url(#SVGID_15_)" points="1513.1,1412.4 1520.9,1412.6 1520.9,1412.6 1520.9,1412.6 1520.9,1412.6         1520.9,1412.6 1600.9,1452.5 1536,1452.5 1536,1452.5 1534.6,1452.5 1480.1,1452.5       "/>
						
							<linearGradient id="SVGID_16_" gradientUnits="userSpaceOnUse" x1="2537.1873" y1="-732.6014" x2="2584.2014" y2="-811.7982" gradientTransform="matrix(-1 0 0 1 4070.0747 2156.5989)">
							<stop offset="0" style="stop-color:#9A9999"/>
							<stop offset="1" style="stop-color:#9F9F9F"/>
						</linearGradient>
						<polygon fill="url(#SVGID_16_)" points="1520.6,1390.1 1458,1361.7 1436.9,1359 1458,1384.3 1499.8,1408.9 1513.1,1412.4         1520.9,1412.6 1576.5,1400.7       "/>
					</g>
				</g>
			</g>
		</g>
		<linearGradient id="SVGID_17_" gradientUnits="userSpaceOnUse" x1="1230.5699" y1="1248.7067" x2="1228.5775" y2="1351.6506">
			<stop offset="0" style="stop-color:#346578"/>
			<stop offset="1" style="stop-color:#212E41"/>
		</linearGradient>
		<polygon clip-path="url(#SVGID_1_)" fill="url(#SVGID_17_)" points="1279.1,1293.2 1279.1,1293.2 1279.1,1293.2 1246.3,1265.6     1200.7,1228.5 1167.7,1243.8 1159.4,1300.1 1167.5,1316.6 1167.5,1316.6 1167.5,1316.6 1211.5,1473.3 1270,1473.3 1298.1,1380.6       "/>
		
			<linearGradient id="SVGID_18_" gradientUnits="userSpaceOnUse" x1="963.02" y1="-737.8155" x2="924.479" y2="-868.6046" gradientTransform="matrix(1 0 -6.480000e-002 1 85.4248 2156.5986)">
			<stop offset="0" style="stop-color:#121F31"/>
			<stop offset="1" style="stop-color:#415870"/>
		</linearGradient>
		<polygon clip-path="url(#SVGID_1_)" fill="url(#SVGID_18_)" points="1133.4,1316.8 1133.4,1316.8 1110.6,1501.4 1074.3,1479.6     1074.3,1479.6 1073.1,1479.6 1054.7,1479.6 1012,1347.1 1128,1261.8 1128,1261.8 1128,1261.8 1128,1261.8 1128,1261.8   "/>
		<linearGradient id="SVGID_19_" gradientUnits="userSpaceOnUse" x1="1308.8237" y1="1206.1593" x2="1308.8237" y2="1267.5442">
			<stop offset="0" style="stop-color:#425559"/>
			<stop offset="1" style="stop-color:#2D4A5C"/>
		</linearGradient>
		<polygon clip-path="url(#SVGID_1_)" fill="url(#SVGID_19_)" points="1310.8,1412.6 1349,1348.6 1304.6,1241.8 1277.4,1292.1     1295.8,1379.6 1268.7,1472.3   "/>
		
			<linearGradient id="SVGID_20_" gradientUnits="userSpaceOnUse" x1="2058.1235" y1="2268.0286" x2="2116.1313" y2="2210.0208" gradientTransform="matrix(1 0 6.480000e-002 -1 -896.5038 3626.5203)">
			<stop offset="0" style="stop-color:#253D53"/>
			<stop offset="1" style="stop-color:#4A5659"/>
		</linearGradient>
		<polygon clip-path="url(#SVGID_1_)" fill="url(#SVGID_20_)" points="1331.4,1412.6 1342.6,1417.4 1348.1,1348.6 1310.4,1412.6       "/>
		<linearGradient id="SVGID_21_" gradientUnits="userSpaceOnUse" x1="1017.2589" y1="1361.4072" x2="1080.3064" y2="1262.9331">
			<stop offset="0" style="stop-color:#26344D"/>
			<stop offset="1" style="stop-color:#2F5A66"/>
		</linearGradient>
		<polygon clip-path="url(#SVGID_1_)" fill="url(#SVGID_21_)" points="1127.1,1264.8 1012,1348.7 987,1333.8 1060.9,1285.2     1127.4,1249.3   "/>
		
			<linearGradient id="SVGID_22_" gradientUnits="userSpaceOnUse" x1="1262.3069" y1="1237.4604" x2="1293.5203" y2="1280.1735" gradientTransform="matrix(1.0104 -2.095197e-005 -2.094792e-005 1 -13.5757 2.738631e-002)">
			<stop offset="0" style="stop-color:#4A687D"/>
			<stop offset="1" style="stop-color:#314E52"/>
		</linearGradient>
		<polygon clip-path="url(#SVGID_1_)" fill="url(#SVGID_22_)" points="1277,1299.9 1239.9,1260.8 1242.5,1175.8 1268.9,1197.8     1304.2,1241.8   "/>
		
			<linearGradient id="SVGID_23_" gradientUnits="userSpaceOnUse" x1="1581.2476" y1="2126.2122" x2="1642.9196" y2="2345.5759" gradientTransform="matrix(1 0 6.480000e-002 -1 -896.5038 3626.5203)">
			<stop offset="0" style="stop-color:#0A1524"/>
			<stop offset="1" style="stop-color:#3D4357"/>
		</linearGradient>
		<polygon clip-path="url(#SVGID_1_)" fill="url(#SVGID_23_)" points="987,1332.5 944.6,1347.1 857.5,1383 831.2,1380.6     736.1,1414.7 736.1,1479.6 917.3,1479.6 950.8,1465   "/>
		<linearGradient id="SVGID_24_" gradientUnits="userSpaceOnUse" x1="998.0701" y1="1472.8357" x2="966.5676" y2="1240.7924">
			<stop offset="0" style="stop-color:#111D2E"/>
			<stop offset="1" style="stop-color:#36485D"/>
		</linearGradient>
		<polygon clip-path="url(#SVGID_1_)" fill="url(#SVGID_24_)" points="1012,1347.1 987,1332.5 938.8,1398.3 940,1465 1056.2,1481       "/>
		<linearGradient id="SVGID_26_" gradientUnits="userSpaceOnUse" x1="1190.017" y1="1286.6523" x2="1180.9667" y2="1419.5782">
			<stop offset="0" style="stop-color:#25475A"/>
			<stop offset="1" style="stop-color:#121F31"/>
		</linearGradient>
		<polygon clip-path="url(#SVGID_1_)" fill="url(#SVGID_26_)" points="1170.7,1315.6 1170.7,1315.6 1163,1299 1170.8,1242.8     1127.4,1249.3 1122.5,1261.8 1127.7,1316.8 1127.7,1316.8 1127.7,1316.8 1106,1501.4 1110.2,1501.4 1246.8,1472.3 1229.8,1386.9       "/>
		
			<linearGradient id="SVGID_27_" gradientUnits="userSpaceOnUse" x1="536.9112" y1="3831.1326" x2="3813.9492" y2="554.0945" gradientTransform="matrix(1 0 6.480000e-002 -1 -896.5038 3626.5203)">
			<stop offset="0" style="stop-color:#424E51"/>
			<stop offset="1" style="stop-color:#253336"/>
		</linearGradient>
		<polygon clip-path="url(#SVGID_1_)" fill="url(#SVGID_27_)" points="1387.9,1465 1351.4,1360.1 1407.7,1353.1 1407.1,1387.2     1387.9,1465   "/>
		
			<linearGradient id="SVGID_28_" gradientUnits="userSpaceOnUse" x1="2024.8807" y1="2401.1494" x2="2194.9519" y2="2231.0784" gradientTransform="matrix(1 0 6.480000e-002 -1 -896.5038 3626.5203)">
			<stop offset="0" style="stop-color:#32546B"/>
			<stop offset="1" style="stop-color:#1C2932"/>
		</linearGradient>
		<polygon clip-path="url(#SVGID_1_)" fill="url(#SVGID_28_)" points="1424.8,1321.3 1354.4,1281.2 1304.2,1241.8 1348.1,1348.6       "/>
		<linearGradient id="SVGID_29_" gradientUnits="userSpaceOnUse" x1="1337.8423" y1="1502.0718" x2="1335.9288" y2="1352.822">
			<stop offset="0" style="stop-color:#101830"/>
			<stop offset="1" style="stop-color:#232F40"/>
		</linearGradient>
		<polygon clip-path="url(#SVGID_1_)" fill="url(#SVGID_29_)" points="1393.9,1468.5 1281.4,1501.3 1352.8,1350.3   "/>
		<linearGradient id="SVGID_30_" gradientUnits="userSpaceOnUse" x1="1401.8502" y1="1338.0696" x2="1403.6951" y2="1476.4459">
			<stop offset="0" style="stop-color:#253649"/>
			<stop offset="1" style="stop-color:#121C31"/>
		</linearGradient>
		<polygon clip-path="url(#SVGID_1_)" fill="url(#SVGID_30_)" points="1458.2,1507.6 1387.3,1468.4 1348,1355.3 1411.4,1361.2     1435.7,1361   "/>
		<linearGradient id="SVGID_31_" gradientUnits="userSpaceOnUse" x1="1230.8179" y1="1432.9325" x2="1252.8118" y2="1317.8311">
			<stop offset="0" style="stop-color:#162232"/>
			<stop offset="1" style="stop-color:#263C52"/>
		</linearGradient>
		<polygon clip-path="url(#SVGID_1_)" fill="url(#SVGID_31_)" points="1276,1329.1 1276,1363.8 1246.8,1472.3 1244.1,1472.3     1212.1,1363.5 1227.5,1359.2   "/>
		<linearGradient id="SVGID_32_" gradientUnits="userSpaceOnUse" x1="1170.0833" y1="1289.4675" x2="1174.4376" y2="1472.3523">
			<stop offset="0" style="stop-color:#223E4E"/>
			<stop offset="1" style="stop-color:#121F31"/>
		</linearGradient>
		<polygon clip-path="url(#SVGID_1_)" fill="url(#SVGID_32_)" points="1212.1,1363.5 1203.2,1363.7 1203.2,1363.7 1203.2,1363.7     1203.2,1363.7 1203.2,1363.7 1105.5,1501.4 1244.1,1472.3   "/>
		<linearGradient id="SVGID_33_" gradientUnits="userSpaceOnUse" x1="1438.2035" y1="1244.6548" x2="1460.1642" y2="1454.8918">
			<stop offset="0" style="stop-color:#35465D"/>
			<stop offset="1" style="stop-color:#121F31"/>
		</linearGradient>
		<polygon clip-path="url(#SVGID_1_)" fill="url(#SVGID_33_)" points="1509,1476.6 1450.2,1501.4 1428.1,1365.3 1404.3,1365.5     1484,1338.8 1495.3,1372.1   "/>
		<linearGradient id="SVGID_34_" gradientUnits="userSpaceOnUse" x1="1550.0463" y1="1471.8948" x2="1524.9537" y2="1324.4761">
			<stop offset="0" style="stop-color:#121930"/>
			<stop offset="1" style="stop-color:#293442"/>
		</linearGradient>
		<polygon clip-path="url(#SVGID_1_)" fill="url(#SVGID_34_)" points="1547.5,1471.9 1593.4,1429.8 1522.4,1362.5 1483.2,1337.6     1489.2,1373.3 1500.8,1479.3 1557,1471.9   "/>
		<linearGradient id="SVGID_35_" gradientUnits="userSpaceOnUse" x1="1178.2079" y1="1363.9735" x2="1277.621" y2="1281.1292">
			<stop offset="0" style="stop-color:#2B4957"/>
			<stop offset="1" style="stop-color:#475C73"/>
		</linearGradient>
		<polygon clip-path="url(#SVGID_1_)" fill="url(#SVGID_35_)" points="1203.5,1336.2 1276,1301.5 1300.4,1298.1 1276,1329.1     1227.5,1359.2 1212.1,1363.5 1203.2,1363.7 1132.7,1355.3   "/>
		<linearGradient id="SVGID_36_" gradientUnits="userSpaceOnUse" x1="1298.6227" y1="1473.65" x2="1300.4688" y2="1257.6615">
			<stop offset="0" style="stop-color:#121F31"/>
			<stop offset="1" style="stop-color:#35445D"/>
		</linearGradient>
		<polygon clip-path="url(#SVGID_1_)" fill="url(#SVGID_36_)" points="1351.4,1360.1 1325,1361.1 1314.5,1324.5 1300.4,1298.1     1276,1329.1 1276,1363.8 1276,1363.8 1276,1363.8 1246.8,1472.3 1281.5,1479.6 1288,1494.1 1351.4,1360.1   "/>
		
			<linearGradient id="SVGID_37_" gradientUnits="userSpaceOnUse" x1="1647.1536" y1="-665.7126" x2="1604.3864" y2="-791.0651" gradientTransform="matrix(1 0 0 1 0 2156.5989)">
			<stop offset="0" style="stop-color:#0D1929"/>
			<stop offset="1" style="stop-color:#1F263B"/>
		</linearGradient>
		<polygon clip-path="url(#SVGID_1_)" fill="url(#SVGID_37_)" points="1724,1476.3 1605.4,1484.8 1536.5,1469.1 1571,1427.2     1517.7,1360.3 1634.7,1406.3 1665.2,1404.4 1724,1413.7   "/>
		<linearGradient id="SVGID_38_" gradientUnits="userSpaceOnUse" x1="1125.5469" y1="1335.639" x2="1073.6844" y2="1449.3544">
			<stop offset="0" style="stop-color:#223A4F"/>
			<stop offset="1" style="stop-color:#121F31"/>
		</linearGradient>
		<polygon clip-path="url(#SVGID_1_)" fill="url(#SVGID_38_)" points="1132.7,1355.3 1203.2,1363.7 1105.5,1501.4 969.5,1479.6     1026.6,1479.6   "/>
		<linearGradient id="SVGID_39_" gradientUnits="userSpaceOnUse" x1="1195.1825" y1="1294.5029" x2="1192.0286" y2="1178.5953">
			<stop offset="0" style="stop-color:#294D60"/>
			<stop offset="1" style="stop-color:#8C90AB"/>
		</linearGradient>
		<polygon clip-path="url(#SVGID_1_)" fill="url(#SVGID_39_)" points="1269.4,1197.8 1243.2,1175.7 1202.4,1227.4 1170.8,1242.8     1127.4,1249.3 1084.1,1272.3 1110.1,1265.7 1117.8,1266.6 1126.2,1301 1162.9,1262.3 1192.9,1257.6 1240.5,1260.7 1251.2,1236     1272,1247.7 1293.1,1261.3 1301,1256.4 1304.2,1241.8   "/>
		
			<linearGradient id="SVGID_40_" gradientUnits="userSpaceOnUse" x1="-324.856" y1="1482.2527" x2="-133.3998" y2="1566.4539" gradientTransform="matrix(-1 0 0 -1 1062.7925 2851.0415)">
			<stop offset="0" style="stop-color:#243440"/>
			<stop offset="1" style="stop-color:#36566B"/>
		</linearGradient>
		<polygon clip-path="url(#SVGID_1_)" fill="url(#SVGID_40_)" points="1203.5,1336.2 1276,1301.5 1300.4,1298.1 1349.5,1317.8     1418.4,1333.9 1365.5,1323.5 1321.8,1343 1276,1336.4 1249,1345.9   "/>
		<linearGradient id="SVGID_41_" gradientUnits="userSpaceOnUse" x1="1243.2498" y1="1229.0333" x2="1354.4491" y2="1229.0333">
			<stop offset="0" style="stop-color:#70808F"/>
			<stop offset="1" style="stop-color:#223C44"/>
		</linearGradient>
		<polygon clip-path="url(#SVGID_1_)" fill="url(#SVGID_41_)" points="1354.4,1281.2 1304.2,1242.2 1269.4,1198.7 1243.2,1176.8     1300.3,1256.2 1304.8,1264.8   "/>
		<linearGradient id="SVGID_42_" gradientUnits="userSpaceOnUse" x1="1433.3019" y1="1356.3534" x2="1421.7068" y2="1307.4319">
			<stop offset="0" style="stop-color:#233045"/>
			<stop offset="1" style="stop-color:#394457"/>
		</linearGradient>
		<polygon clip-path="url(#SVGID_1_)" fill="url(#SVGID_42_)" points="1410.3,1365.5 1485.7,1338.8 1428.1,1313.7 1428.1,1313.7     1365.5,1309.1 1418.4,1333.9 1412.1,1347.1   "/>
		<linearGradient id="SVGID_43_" gradientUnits="userSpaceOnUse" x1="1383.343" y1="1389.7264" x2="1357.4015" y2="1280.2747">
			<stop offset="0" style="stop-color:#203342"/>
			<stop offset="1" style="stop-color:#324059"/>
		</linearGradient>
		<polygon clip-path="url(#SVGID_1_)" fill="url(#SVGID_43_)" points="1431.8,1341.1 1372.9,1307.7 1300.4,1292.8 1316.1,1328.4     1327.8,1377.8 1357.2,1376.5 1422.7,1383.8 1424.7,1358.9   "/>
		<linearGradient id="SVGID_44_" gradientUnits="userSpaceOnUse" x1="1360.8962" y1="1444.3024" x2="1360.8962" y2="1588.3822">
			<stop offset="0" style="stop-color:#121C31"/>
			<stop offset="1" style="stop-color:#101C29"/>
		</linearGradient>
		<polygon clip-path="url(#SVGID_1_)" fill="url(#SVGID_44_)" points="1381,1451.7 1262.1,1483.1 1292.5,1575.7 1426.1,1575.7     1459.7,1492.5   "/>
		<linearGradient id="SVGID_45_" gradientUnits="userSpaceOnUse" x1="1200.2542" y1="1591.1461" x2="1143.285" y2="1418.4121">
			<stop offset="0" style="stop-color:#0C192B"/>
			<stop offset="1" style="stop-color:#152638"/>
		</linearGradient>
		<polygon clip-path="url(#SVGID_1_)" fill="url(#SVGID_45_)" points="1286,1474 1249.3,1466.3 1105.1,1496.8 1068,1575.7     1320.3,1575.7 1293.4,1488.3   "/>
		<linearGradient id="SVGID_47_" gradientUnits="userSpaceOnUse" x1="1015.7763" y1="1453.2128" x2="1015.7763" y2="1587.5194">
			<stop offset="0" style="stop-color:#121C31"/>
			<stop offset="1" style="stop-color:#101C29"/>
		</linearGradient>
		<polygon clip-path="url(#SVGID_1_)" fill="url(#SVGID_47_)" points="1026.9,1470.8 948.3,1460.1 928.1,1474.3 921.1,1575.7     1075.4,1575.7 1110.5,1497   "/>
		<linearGradient id="SVGID_48_" gradientUnits="userSpaceOnUse" x1="1457.2401" y1="1418.6354" x2="1503.4142" y2="1563.7994">
			<stop offset="0" style="stop-color:#152638"/>
			<stop offset="1" style="stop-color:#0C192B"/>
		</linearGradient>
		<polygon clip-path="url(#SVGID_1_)" fill="url(#SVGID_48_)" points="1498.6,1476 1453.3,1498.6 1425.1,1575.7 1556.5,1575.7     1556.5,1472.5 1527,1465.1   "/>
		<linearGradient id="SVGID_49_" gradientUnits="userSpaceOnUse" x1="940.8795" y1="1427.3392" x2="902.9902" y2="1554.9803">
			<stop offset="0" style="stop-color:#152638"/>
			<stop offset="1" style="stop-color:#0C192B"/>
		</linearGradient>
		<polygon clip-path="url(#SVGID_1_)" fill="url(#SVGID_49_)" points="901.2,1479.6 948.3,1466.1 921.1,1575.7 901,1575.7   "/>
	</g>
	<defs>
		<filter id="Adobe_OpacityMaskFilter" filterUnits="userSpaceOnUse" x="901" y="1561.7" width="642" height="13.9">
			<feFlood style="flood-color:white;flood-opacity:1" result="back"/>
			<feBlend in="SourceGraphic" in2="back" mode="normal"/>
		</filter>
	</defs>
	<mask maskUnits="userSpaceOnUse" x="901" y="1561.7" width="642" height="13.9" id="SVGID_50_">
		<g filter="url(#Adobe_OpacityMaskFilter)">
			<defs>
				<filter id="Adobe_OpacityMaskFilter_1_" filterUnits="userSpaceOnUse" x="901" y="1561.7" width="642" height="13.9">
					<feFlood style="flood-color:white;flood-opacity:1" result="back"/>
					<feBlend in="SourceGraphic" in2="back" mode="normal"/>
				</filter>
			</defs>
			<mask maskUnits="userSpaceOnUse" x="901" y="1561.7" width="642" height="13.9" id="SVGID_50_">
			</mask>
			
				<radialGradient id="SVGID_51_" cx="1217.4116" cy="1565.465" r="139.8177" gradientTransform="matrix(1.6244 0 0 1 -746.1161 0)" gradientUnits="userSpaceOnUse">
				<stop offset="0" style="stop-color:#FFFFFF"/>
				<stop offset="1" style="stop-color:#000000"/>
			</radialGradient>
			<polygon mask="url(#SVGID_50_)" fill="url(#SVGID_51_)" points="968.3,1570.2 1058.5,1561.7 1105,1566.4 1362.7,1561.7      1418.3,1561.7 1489.7,1566.4 1543,1575.7 901,1575.7    "/>
		</g>
	</mask>
	
		<radialGradient id="SVGID_52_" cx="1217.4116" cy="1565.465" r="139.8177" gradientTransform="matrix(1.6244 0 0 1 -746.1161 0)" gradientUnits="userSpaceOnUse">
		<stop offset="0" style="stop-color:#4B4257"/>
		<stop offset="1" style="stop-color:#4B4257"/>
	</radialGradient>
	<polygon fill="url(#SVGID_52_)" points="968.3,1570.2 1058.5,1561.7 1105,1566.4 1362.7,1561.7 1418.3,1561.7 1489.7,1566.4    1543,1575.7 901,1575.7  "/>
	<polygon fill="#1D2336" points="968.3,1571 1058.5,1562.5 1105,1567.1 1362.7,1562.5 1418.3,1562.5 1489.7,1567.1 1543,1575.7    901,1575.7  "/>
</g>
</svg>